# xmcd CD database file
# Copyright (C) 1997 Ti Kan
#
# Track frame offsets:
#  150
#  20642
#  39719
#  59958
#  79845
#  93637
#  112149
#  131704
#  150118
#  169145
#  190417
#  206947
#  225991
#
# Disc length: 3285 seconds
#
# Revision: 1
# Processed by: cddbd v1.4b41PL1 Copyright (c) Steve Scherf et al.
# Submitted via: CDWizzard Release:4.32
#
DISCID=ba0cd30d
DTITLE=CHRIS NORMAN - BREAK THE ICE                      269
DYEAR=1900
DGENRE=
TTITLE0=BREAK THE ICE
TTITLE1=HEARTS ON FIRE
TTITLE2=THE NIGHT HAS TURNED COLD
TTITLE3=ONE LAST KISS
TTITLE4=SAVE IN THE ARMS OF LOVE
TTITLE5=ANGIE DONT YOU LOVE ME
TTITLE6=LIVING IN A FANTASY
TTITLE7=YOUVE LOST THAT LOVING FEELIN
TTITLE8=KEEP YOUR DISTANCE
TTITLE9=ONE WAY LOVE AFFAIR
TTITLE10=THESE ARMS OF MINE
TTITLE11=GOT ME IN THE PALM OF YOUR HAND
TTITLE12=GOT ME IN THE PALM OF YOUR HAND
EXTD=
EXTT0=
EXTT1=
EXTT2=
EXTT3=
EXTT4=
EXTT5=
EXTT6=
EXTT7=
EXTT8=
EXTT9=
EXTT10=
EXTT11=
EXTT12=
PLAYORDER=
